<svg t="1684336485057" class="icon" viewBox="0 0 1024 1024" version="1.1" xmlns="http://www.w3.org/2000/svg" p-id="3052" width="200" height="200"><path d="M512 512m-414 0a414 414 0 1 0 828 0 414 414 0 1 0-828 0Z" fill="#F0C48A" p-id="3053"></path><path d="M512 512m-307.736 0a307.736 307.736 0 1 0 615.472 0 307.736 307.736 0 1 0-615.472 0Z" fill="#E8677D" p-id="3054"></path><path d="M204.264 512c0 86.952 36.074 165.47 94.06 221.434 34.498 13.38 72.002 20.732 111.226 20.732 169.958 0 307.736-137.778 307.736-307.736 0-86.952-36.074-165.47-94.058-221.436-34.498-13.378-72-20.732-111.224-20.732-169.962 0.002-307.74 137.78-307.74 307.738z" fill="#FD919E" p-id="3055"></path><path d="M512 831.856c-176.37 0-319.856-143.488-319.856-319.858S335.63 192.144 512 192.144 831.856 335.63 831.856 512 688.37 831.856 512 831.856z m0-615.712c-163.136 0-295.856 132.72-295.856 295.856S348.864 807.858 512 807.858 807.856 675.138 807.856 512c0-163.136-132.72-295.856-295.856-295.856z" fill="#4C4372" p-id="3056"></path><path d="M627.528 575.296c0-32.478-17.52-61.11-43.158-77.348 10.254-13.674 16.238-30.338 16.238-48.714 0-34.558-21.554-64.022-51.956-75.752 0.06-0.642 0.098-1.29 0.098-1.948V326.68c0-11.51-9.332-20.842-20.842-20.842-11.51 0-20.842 9.332-20.842 20.842v41.362h-9.474V326.68c0-11.51-9.332-20.842-20.842-20.842-11.51 0-20.842 9.332-20.842 20.842v41.38h-36.004c-11.51 0-20.842 9.332-20.842 20.842 0 11.51 9.332 20.842 20.842 20.842h15.33v217.226h-15.33c-11.51 0-20.842 9.332-20.842 20.842 0 11.51 9.332 20.842 20.842 20.842h36.004v32.892c0 11.51 9.332 20.842 20.842 20.842 11.51 0 20.842-9.332 20.842-20.842v-34.378h9.474v34.378c0 11.51 9.332 20.842 20.842 20.842 11.51 0 20.842-9.332 20.842-20.842v-35.274c44.446-6.192 78.778-44.462 78.778-90.976z m-144.862-159.822h36.748c18.802 0 33.758 14.956 33.758 33.76s-14.956 34.612-33.758 34.612h-36.748v-68.372z m53.416 204.26h-53.416V531.28h53.416c24.356 0.428 44.014 19.654 44.014 44.016 0 24.784-19.658 44.014-44.014 44.438z" fill="#4C4372" p-id="3057"></path></svg>